# xmcd CD database file generated by Grip 3.3.1
# 
# Track frame offsets:
#       150
#       14363
#       33068
#       54382
#       70628
#       86926
#       105524
#       151622
#       164408
#       184239
#       237469
# 
# Disc length: 3172 seconds
# 
# Revision: 2
# Processed by: cddbd v1.5.1PL0 Copyright (c) Steve Scherf et al.
# Submitted via: Grip 3.3.1
# 
DISCID=800c620b
DTITLE=Bleach - Farewell Old Friends
DYEAR=2005
DGENRE=Christian Rock
TTITLE0=Write It Down
TTITLE1=Clear The Air
TTITLE2=Gonna Take Some Time
TTITLE3=Took By The Hand
TTITLE4=Condition
TTITLE5=To The Top
TTITLE6=Sufficient
TTITLE7=Weight Of It All
TTITLE8=Good As Gold
TTITLE9=Farewell Old Friends
TTITLE10=[Data]
EXTD=
EXTT0=
EXTT1=
EXTT2=
EXTT3=
EXTT4=
EXTT5=
EXTT6=
EXTT7=
EXTT8=
EXTT9=
EXTT10=
PLAYORDER=
